<svg id="visual" viewBox="0 0 900 600" width="900" height="600" xmlns="http://www.w3.org/2000/svg" xmlns:xlink="http://www.w3.org/1999/xlink" version="1.1"><path d="M0 73L82 73L82 79L164 79L164 91L245 91L245 79L327 79L327 43L409 43L409 43L491 43L491 79L573 79L573 37L655 37L655 97L736 97L736 49L818 49L818 67L900 67L900 49L900 0L900 0L818 0L818 0L736 0L736 0L655 0L655 0L573 0L573 0L491 0L491 0L409 0L409 0L327 0L327 0L245 0L245 0L164 0L164 0L82 0L82 0L0 0Z" fill="#5a698f"></path><path d="M0 187L82 187L82 235L164 235L164 247L245 247L245 205L327 205L327 235L409 235L409 265L491 265L491 199L573 199L573 295L655 295L655 187L736 187L736 235L818 235L818 193L900 193L900 175L900 47L900 65L818 65L818 47L736 47L736 95L655 95L655 35L573 35L573 77L491 77L491 41L409 41L409 41L327 41L327 77L245 77L245 89L164 89L164 77L82 77L82 71L0 71Z" fill="#485576"></path><path d="M0 283L82 283L82 283L164 283L164 367L245 367L245 313L327 313L327 295L409 295L409 349L491 349L491 301L573 301L573 385L655 385L655 229L736 229L736 313L818 313L818 253L900 253L900 271L900 173L900 191L818 191L818 233L736 233L736 185L655 185L655 293L573 293L573 197L491 197L491 263L409 263L409 233L327 233L327 203L245 203L245 245L164 245L164 233L82 233L82 185L0 185Z" fill="#37415d"></path><path d="M0 451L82 451L82 487L164 487L164 487L245 487L245 469L327 469L327 493L409 493L409 547L491 547L491 523L573 523L573 523L655 523L655 469L736 469L736 487L818 487L818 499L900 499L900 451L900 269L900 251L818 251L818 311L736 311L736 227L655 227L655 383L573 383L573 299L491 299L491 347L409 347L409 293L327 293L327 311L245 311L245 365L164 365L164 281L82 281L82 281L0 281Z" fill="#262e45"></path><path d="M0 601L82 601L82 601L164 601L164 601L245 601L245 601L327 601L327 601L409 601L409 601L491 601L491 601L573 601L573 601L655 601L655 601L736 601L736 601L818 601L818 601L900 601L900 601L900 449L900 497L818 497L818 485L736 485L736 467L655 467L655 521L573 521L573 521L491 521L491 545L409 545L409 491L327 491L327 467L245 467L245 485L164 485L164 485L82 485L82 449L0 449Z" fill="#161d2f"></path></svg>